<?xml version="1.0" standalone="no"?>
<!DOCTYPE svg PUBLIC "-//W3C//DTD SVG 20010904//EN"
 "http://www.w3.org/TR/2001/REC-SVG-20010904/DTD/svg10.dtd">
<svg version="1.0" xmlns="http://www.w3.org/2000/svg"
 width="672.000000pt" height="672.000000pt" viewBox="0 0 672.000000 672.000000"
 preserveAspectRatio="xMidYMid meet">

<g transform="translate(0.000000,672.000000) scale(0.100000,-0.100000)"
fill="#FFFFFF" stroke="none">
<path d="M3028 2575 c83 -109 109 -155 125 -219 l13 -49 47 55 c50 59 55 68 34
68 -34 0 -192 129 -239 194 -16 22 -6 16 42 -23 66 -53 214 -131 247 -131 11
0 28 9 39 21 57 63 202 87 261 43 15 -12 29 -28 31 -37 3 -15 0 -15 -27 -1
-62 31 -137 -5 -272 -130 -96 -89 -174 -137 -308 -190 -134 -52 -144 -51 -42
4 52 28 100 55 108 61 33 28 1 118 -57 159 -39 28 -43 26 -36 -20 9 -56 24
-84 54 -103 35 -21 10 -22 -34 -1 -50 24 -101 86 -118 145 -20 66 -20 86 1
237 l17 123 23 -58 c13 -32 54 -99 91 -148z m1209 129 c-10 -98 -73 -209 -142
-250 -51 -30 -90 -31 -105 -4 -9 17 -8 20 11 20 71 0 159 101 201 232 25 78
43 79 35 2z m-753 -330 c-30 -86 -39 -98 -121 -169 -41 -34 -93 -94 -124 -139
-75 -109 -192 -217 -282 -260 -40 -19 -153 -55 -251 -80 -157 -40 -206 -59
-191 -74 5 -5 257 36 330 55 120 30 283 140 325 219 l15 27 5 -34 c3 -19 2
-56 -3 -83 -7 -41 -5 -52 11 -70 10 -11 29 -41 41 -66 13 -25 26 -47 30 -50
11 -8 51 -67 51 -76 0 -5 -7 2 -16 14 -19 27 -44 29 -44 2 0 -13 -7 -20 -20
-20 -17 0 -20 -7 -21 -52 l-1 -53 -13 35 c-7 19 -14 51 -16 70 -1 23 -3 28 -6
13 -2 -12 -11 -27 -19 -33 -10 -9 -14 -33 -13 -84 1 -64 2 -68 11 -36 12 43
28 62 29 35 1 -11 3 -105 4 -210 3 -204 15 -298 65 -494 16 -64 34 -146 40
-183 7 -38 16 -65 21 -62 27 17 -4 238 -60 419 -15 46 -21 91 -19 144 l1 76 7
-90 c8 -103 17 -125 98 -227 33 -41 72 -93 87 -116 31 -47 31 -47 49 -29 20
19 30 100 30 232 -1 97 -5 131 -22 179 -31 85 -20 80 16 -6 56 -136 67 -210
49 -306 l-9 -42 84 5 c45 4 97 2 113 -4 27 -8 24 -9 -28 -10 -59 -1 -93 -13
-113 -39 -5 -7 -30 -24 -55 -36 -35 -18 -47 -31 -59 -64 -17 -49 -23 -52 -36
-15 -15 44 -11 -351 5 -422 15 -63 19 -234 7 -272 -4 -13 -13 -23 -21 -23 -17
0 -32 63 -16 68 16 5 13 20 -5 24 -16 3 -112 212 -196 431 l-42 107 -13 -42
c-37 -121 -91 -424 -101 -568 -15 -206 23 -495 86 -665 42 -113 46 -125 24
-85 -52 94 -102 298 -125 509 l-12 114 -63 -154 c-81 -202 -92 -241 -92 -322
0 -87 24 -136 82 -171 51 -31 43 -34 -13 -6 -64 33 -122 127 -154 251 -38 144
-22 183 168 416 72 88 78 107 95 297 17 200 23 698 7 692 -6 -2 -46 -30 -90
-61 -184 -133 -474 -232 -651 -223 l-57 3 189 69 c288 104 466 202 550 302 77
92 85 137 11 68 -137 -132 -280 -208 -582 -311 -192 -66 -416 -187 -399 -215
5 -7 61 -9 173 -5 208 7 324 34 504 116 61 28 236 128 260 149 9 8 19 13 22
10 7 -7 -206 -161 -308 -223 -195 -118 -309 -149 -544 -146 -192 2 -233 4
-233 12 0 3 -19 12 -42 18 -24 7 -75 28 -115 46 -178 82 -283 196 -283 307 0
39 5 52 31 77 17 17 34 31 39 31 4 0 -7 -15 -26 -34 -39 -39 -43 -70 -15 -131
44 -97 179 -169 388 -208 l113 -21 37 36 c57 53 143 107 290 182 77 39 153 86
183 113 100 90 179 225 266 457 26 72 81 197 121 279 61 124 69 147 52 142
-12 -4 -51 -15 -88 -26 -51 -14 -73 -27 -99 -56 -76 -86 -111 -184 -132 -369
-19 -173 -72 -338 -136 -421 -37 -49 -41 -34 -5 21 39 62 66 171 86 341 27
226 59 341 120 420 l24 32 -125 -1 c-137 -1 -126 4 -137 -66 -3 -14 -5 -4 -6
23 l-1 47 -53 0 c-40 0 -70 -8 -113 -30 -70 -34 -93 -57 -128 -124 -37 -70
-32 -32 5 43 46 92 145 188 248 239 46 23 88 42 95 42 6 0 24 21 41 48 16 26
53 71 82 100 29 30 53 58 53 64 0 6 7 8 15 4 9 -3 15 0 15 9 0 8 6 15 14 15 8
0 21 8 28 18 38 50 167 119 353 186 55 20 118 43 141 52 72 26 133 71 162 120
32 55 71 104 82 104 4 0 -3 -30 -16 -66z m464 -247 c50 -39 226 -147 238 -147
3 0 22 -11 42 -25 20 -14 42 -25 49 -25 24 0 169 -154 193 -205 37 -76 34
-163 -8 -246 -17 -35 -41 -75 -53 -89 -13 -15 -8 -1 12 35 29 52 33 69 33 131
0 98 -40 179 -129 263 -36 34 -73 61 -82 61 -26 0 -93 -74 -93 -104 0 -25 1
-25 18 -8 10 9 17 22 15 29 -11 29 61 37 95 10 18 -14 15 -25 -9 -32 -16 -5
-18 -10 -9 -20 16 -19 4 -35 -26 -35 -14 0 -27 -7 -31 -17 -3 -10 -15 -25 -26
-35 -21 -16 -21 -16 8 -53 23 -31 26 -41 17 -56 -7 -10 -12 -26 -12 -34 0 -8
-4 -15 -10 -15 -5 0 -10 5 -10 10 0 6 -7 10 -15 10 -24 0 -29 29 -9 51 17 19
17 21 -1 56 -11 19 -25 38 -32 40 -15 6 -18 109 -4 145 9 24 38 56 74 81 17
12 13 17 -45 57 -163 113 -303 237 -384 340 -15 19 10 -2 54 -47 45 -45 108
-102 140 -126z m-521 -29 c-71 -123 -81 -149 -85 -232 -3 -73 -1 -89 28 -159
17 -43 30 -83 28 -89 -2 -6 -14 15 -26 48 -30 82 -54 118 -91 136 -22 10 -28
17 -18 21 8 3 16 26 20 56 3 29 18 74 33 101 24 45 119 160 131 160 3 0 -6
-19 -20 -42z m776 -789 c4 -105 -17 -478 -28 -506 -11 -26 -79 -83 -100 -83
-13 0 -3 31 19 57 38 45 68 113 75 170 4 30 5 50 1 46 -4 -4 -34 -65 -66 -135
-32 -69 -60 -125 -61 -124 -12 11 36 190 83 311 53 137 58 157 58 232 1 78 16
104 19 32z m-179 -681 c9 -12 16 -36 16 -54 0 -17 7 -53 15 -80 22 -72 18 -86
-23 -99 -20 -6 -23 -4 -19 12 3 10 8 32 11 48 6 27 5 28 -6 10 -6 -11 -21 -50
-33 -88 -21 -65 -22 -66 -33 -42 -18 40 -15 67 19 151 25 62 30 85 24 120 -7
49 5 57 29 22z m-456 -46 c18 -23 34 -88 30 -125 l-3 -32 -22 35 c-13 19 -23
30 -23 24 0 -14 53 -96 73 -113 10 -7 17 -28 17 -46 l0 -32 -44 41 c-24 23
-49 51 -55 64 -7 12 -16 20 -21 17 -17 -11 -31 60 -24 127 6 67 7 68 33 62 14
-4 32 -14 39 -22z m-614 -114 c-16 -23 -67 -82 -113 -130 -143 -151 -345 -286
-558 -374 -523 -215 -647 -302 -672 -470 l-9 -59 -1 57 c-2 84 37 179 123 300
25 35 36 43 40 32 4 -10 -8 -32 -29 -57 -47 -55 -44 -68 5 -23 22 20 47 36 55
36 8 0 15 4 15 9 0 18 97 70 240 130 154 65 253 111 247 117 -4 5 -177 -40
-234 -60 -41 -14 -43 -14 -58 6 -14 21 -13 22 22 34 20 7 40 11 44 8 4 -2 22
5 41 15 18 11 71 29 118 41 132 34 299 89 365 122 138 70 278 180 350 276 39
53 46 45 9 -10z m559 -97 c45 -50 52 -73 37 -127 -7 -24 -10 -63 -7 -85 4 -29
2 -38 -5 -31 -6 6 -14 43 -18 84 -5 40 -20 106 -34 145 -14 40 -26 83 -25 95
1 17 3 15 9 -9 4 -18 23 -50 43 -72z m-484 -16 c1 -78 -22 -186 -51 -238 -30
-54 -91 -99 -170 -127 -50 -17 -93 -23 -208 -26 l-145 -5 69 25 c38 14 105 47
148 73 157 94 239 181 306 322 40 84 50 80 51 -24z m-1156 -132 c-52 -79 -62
-90 -40 -48 17 33 75 115 81 115 2 0 -16 -30 -41 -67z m2433 -115 c29 -195 13
-419 -42 -593 -31 -98 -109 -265 -123 -265 -6 0 -11 -7 -11 -15 0 -8 -4 -15
-9 -15 -5 0 -8 -8 -7 -17 0 -11 -5 -17 -13 -15 -9 2 -11 -3 -7 -13 4 -12 0
-14 -19 -9 -30 7 -44 -18 -25 -41 11 -13 6 -25 -26 -73 -54 -79 -221 -288
-313 -391 -42 -47 -90 -102 -106 -122 -17 -20 -62 -74 -101 -120 -159 -190
-279 -372 -349 -531 -22 -48 -40 -86 -42 -84 -13 13 250 580 311 669 14 21 26
42 26 47 0 24 185 311 304 473 239 324 266 361 327 461 79 127 141 258 175
371 24 79 27 108 28 237 1 80 3 145 4 143 2 -2 10 -45 18 -97z m-283 25 c-11
-21 -35 -48 -53 -61 -29 -20 -45 -22 -119 -21 -47 1 -98 -2 -114 -6 -29 -8
-97 1 -97 13 0 4 35 17 79 30 75 21 81 22 149 7 88 -18 113 -10 144 44 28 50
37 45 11 -6z m-2212 -20 c-12 -20 -14 -14 -5 12 4 9 9 14 11 11 3 -2 0 -13 -6
-23z m-26 -74 c-8 -24 -19 -71 -25 -104 l-9 -60 4 60 c4 56 32 161 41 152 2
-2 -3 -23 -11 -48z m1202 -66 c-21 -39 -46 -60 -97 -80 -39 -15 -82 -18 -315
-18 -294 0 -305 -2 -373 -60 -18 -15 -35 -25 -38 -22 -7 6 50 49 95 72 58 29
208 55 321 55 208 0 349 30 397 82 22 25 29 8 10 -29z m-1015 -7 c-7 -25 -9
-27 -21 -12 -12 14 -11 19 5 30 24 18 25 16 16 -18z m28 4 c0 -5 -4 -10 -10
-10 -5 0 -10 5 -10 10 0 6 5 10 10 10 6 0 10 -4 10 -10z m-54 -22 c3 -5 1 -15
-5 -21 -8 -8 -15 -6 -27 9 -15 18 -15 18 -5 -3 15 -29 -7 -43 -26 -17 -12 16
-12 20 1 29 19 14 54 16 62 3z m-77 -41 c14 -17 2 -30 -15 -17 -9 8 -12 6 -10
-7 1 -12 -5 -17 -18 -15 -11 2 -15 -1 -11 -7 3 -7 -2 -11 -14 -11 -12 0 -21
-5 -21 -11 0 -5 5 -7 12 -3 7 5 8 3 3 -5 -5 -9 -10 -10 -18 -2 -8 8 0 22 28
51 43 44 48 46 64 27z m1590 -149 c-1 -82 -3 -95 -10 -63 -11 57 -11 165 1
165 6 0 10 -40 9 -102z m621 -619 c0 -5 -4 -9 -10 -9 -5 0 -10 7 -10 16 0 8 5
12 10 9 6 -3 10 -10 10 -16z m-181 -531 c-50 -95 -272 -384 -393 -513 l-57
-60 45 58 c48 60 55 73 34 61 -13 -7 -98 -73 -108 -84 -3 -3 -28 -25 -54 -50
-48 -44 -49 -44 -26 -10 93 139 242 312 418 486 132 131 165 157 141 112z
m-449 -582 c0 -2 -8 -10 -17 -17 -16 -13 -17 -12 -4 4 13 16 21 21 21 13z
m-180 -135 c-5 -11 -15 -23 -22 -27 -7 -5 -8 -2 -3 7 21 37 44 55 25 20z"/>
<path d="M3095 5385 c-27 -8 -86 -23 -130 -34 -119 -29 -188 -57 -270 -112
-70 -47 -147 -130 -126 -137 15 -5 234 54 301 82 93 37 163 84 232 153 34 35
58 63 53 62 -6 0 -32 -7 -60 -14z"/>
<path d="M3135 5090 c-3 -5 1 -10 9 -10 9 0 16 5 16 10 0 6 -4 10 -9 10 -6 0
-13 -4 -16 -10z"/>
<path d="M3049 5016 c-39 -26 -52 -45 -92 -131 -52 -111 -33 -95 39 33 25 46
48 82 50 80 1 -2 -8 -62 -21 -133 -13 -72 -26 -170 -30 -220 -8 -107 -24 -175
-64 -273 -17 -40 -27 -72 -22 -72 15 0 82 100 116 173 41 89 57 148 85 311
l20 120 -25 26 c-30 32 -31 44 -4 71 20 20 22 41 3 45 -5 1 -30 -12 -55 -30z"/>
<path d="M2448 5010 c-43 -16 -118 -57 -118 -65 0 -5 155 56 164 66 18 17 0
17 -46 -1z"/>
<path d="M2050 3370 c0 -5 5 -10 11 -10 5 0 7 5 4 10 -3 6 -8 10 -11 10 -2 0
-4 -4 -4 -10z"/>
</g>
</svg>